<svg width="106" height="13" viewBox="0 0 106 13" fill="none" xmlns="http://www.w3.org/2000/svg">
<path d="M0.125 12L4.58594 0.132812H6.4375L1.96094 12H0.125ZM4.57812 12L9.03906 0.132812H10.8906L6.41406 12H4.57812ZM24.8906 12H22.4844L17.7812 3.82031V12H15.5391V0.484375H18.0625L22.6484 8.52344V0.484375H24.8906V12ZM32.4219 10.7969C32.401 10.8229 32.349 10.901 32.2656 11.0312C32.1823 11.1615 32.0833 11.276 31.9688 11.375C31.6198 11.6875 31.2812 11.901 30.9531 12.0156C30.6302 12.1302 30.25 12.1875 29.8125 12.1875C28.5521 12.1875 27.7031 11.7344 27.2656 10.8281C27.0208 10.3281 26.8984 9.59115 26.8984 8.61719V3.48438H29.1797V8.61719C29.1797 9.10156 29.237 9.46615 29.3516 9.71094C29.5547 10.1432 29.9531 10.3594 30.5469 10.3594C31.3073 10.3594 31.8281 10.0521 32.1094 9.4375C32.2552 9.10417 32.3281 8.66406 32.3281 8.11719V3.48438H34.5859V12H32.4219V10.7969ZM36.7891 0.484375H39.0156V12H36.7891V0.484375ZM41.2422 0.484375H43.4688V12H41.2422V0.484375ZM58.6484 0.484375V2.52344H55.2031V12H52.7812V2.52344H49.3203V0.484375H58.6484ZM63.2891 5.53906C62.3932 5.53906 61.7917 5.83073 61.4844 6.41406C61.3125 6.74219 61.2266 7.2474 61.2266 7.92969V12H58.9844V3.48438H61.1094V4.96875C61.4531 4.40104 61.7526 4.01302 62.0078 3.80469C62.4245 3.45573 62.9661 3.28125 63.6328 3.28125C63.6745 3.28125 63.7083 3.28385 63.7344 3.28906C63.7656 3.28906 63.8307 3.29167 63.9297 3.29688V5.57812C63.7891 5.5625 63.6641 5.55208 63.5547 5.54688C63.4453 5.54167 63.3568 5.53906 63.2891 5.53906ZM65.5625 4.40625C66.151 3.65625 67.1615 3.28125 68.5938 3.28125C69.526 3.28125 70.3542 3.46615 71.0781 3.83594C71.8021 4.20573 72.1641 4.90365 72.1641 5.92969V9.83594C72.1641 10.1068 72.1693 10.4349 72.1797 10.8203C72.1953 11.112 72.2396 11.3099 72.3125 11.4141C72.3854 11.5182 72.4948 11.6042 72.6406 11.6719V12H70.2188C70.151 11.8281 70.1042 11.6667 70.0781 11.5156C70.0521 11.3646 70.0312 11.1927 70.0156 11C69.7083 11.3333 69.3542 11.6172 68.9531 11.8516C68.474 12.1276 67.9323 12.2656 67.3281 12.2656C66.5573 12.2656 65.9193 12.0469 65.4141 11.6094C64.9141 11.1667 64.6641 10.5417 64.6641 9.73438C64.6641 8.6875 65.0677 7.92969 65.875 7.46094C66.3177 7.20573 66.9688 7.02344 67.8281 6.91406L68.5859 6.82031C68.9974 6.76823 69.2917 6.70312 69.4688 6.625C69.7865 6.48958 69.9453 6.27865 69.9453 5.99219C69.9453 5.64323 69.8229 5.40365 69.5781 5.27344C69.3385 5.13802 68.9844 5.07031 68.5156 5.07031C67.9896 5.07031 67.6172 5.20052 67.3984 5.46094C67.2422 5.65365 67.138 5.91406 67.0859 6.24219H64.9375C64.9844 5.4974 65.1927 4.88542 65.5625 4.40625ZM67.2188 10.3906C67.4271 10.5625 67.6823 10.6484 67.9844 10.6484C68.4635 10.6484 68.9036 10.5078 69.3047 10.2266C69.7109 9.94531 69.9219 9.43229 69.9375 8.6875V7.85938C69.7969 7.94792 69.6536 8.02083 69.5078 8.07812C69.3672 8.13021 69.1719 8.17969 68.9219 8.22656L68.4219 8.32031C67.9531 8.40365 67.6172 8.50521 67.4141 8.625C67.0703 8.82812 66.8984 9.14323 66.8984 9.57031C66.8984 9.95052 67.0052 10.224 67.2188 10.3906ZM81.5156 6.53906H79.2344C79.1927 6.22135 79.0859 5.9349 78.9141 5.67969C78.6641 5.33594 78.276 5.16406 77.75 5.16406C77 5.16406 76.487 5.53646 76.2109 6.28125C76.0651 6.67708 75.9922 7.20312 75.9922 7.85938C75.9922 8.48438 76.0651 8.98698 76.2109 9.36719C76.4766 10.0755 76.9766 10.4297 77.7109 10.4297C78.2318 10.4297 78.6016 10.2891 78.8203 10.0078C79.0391 9.72656 79.1719 9.36198 79.2188 8.91406H81.4922C81.4401 9.59115 81.1953 10.2318 80.7578 10.8359C80.0599 11.8099 79.026 12.2969 77.6562 12.2969C76.2865 12.2969 75.2786 11.8906 74.6328 11.0781C73.987 10.2656 73.6641 9.21094 73.6641 7.91406C73.6641 6.45052 74.0208 5.3125 74.7344 4.5C75.4479 3.6875 76.4323 3.28125 77.6875 3.28125C78.7552 3.28125 79.6276 3.52083 80.3047 4C80.987 4.47917 81.3906 5.32552 81.5156 6.53906ZM90.8672 12H88.1797L86.1406 8.35938L85.2188 9.32031V12H83.0312V0.523438H85.2188V6.72656L87.9922 3.52344H90.75L87.7734 6.78125L90.8672 12ZM99.25 9.5C99.1927 10.0052 98.9297 10.5182 98.4609 11.0391C97.7318 11.8672 96.7109 12.2812 95.3984 12.2812C94.3151 12.2812 93.3594 11.9323 92.5312 11.2344C91.7031 10.5365 91.2891 9.40104 91.2891 7.82812C91.2891 6.35417 91.6615 5.22396 92.4062 4.4375C93.1562 3.65104 94.1276 3.25781 95.3203 3.25781C96.0286 3.25781 96.6667 3.39062 97.2344 3.65625C97.8021 3.92188 98.2708 4.34115 98.6406 4.91406C98.974 5.41927 99.1901 6.00521 99.2891 6.67188C99.3464 7.0625 99.3698 7.625 99.3594 8.35938H93.5312C93.5625 9.21354 93.8307 9.8125 94.3359 10.1562C94.6432 10.3698 95.013 10.4766 95.4453 10.4766C95.9036 10.4766 96.276 10.3464 96.5625 10.0859C96.7188 9.94531 96.8568 9.75 96.9766 9.5H99.25ZM97.0469 6.89062C97.0104 6.30208 96.8307 5.85677 96.5078 5.55469C96.1901 5.2474 95.7943 5.09375 95.3203 5.09375C94.8047 5.09375 94.4036 5.25521 94.1172 5.57812C93.8359 5.90104 93.6589 6.33854 93.5859 6.89062H97.0469ZM105.148 5.53906C104.253 5.53906 103.651 5.83073 103.344 6.41406C103.172 6.74219 103.086 7.2474 103.086 7.92969V12H100.844V3.48438H102.969V4.96875C103.312 4.40104 103.612 4.01302 103.867 3.80469C104.284 3.45573 104.826 3.28125 105.492 3.28125C105.534 3.28125 105.568 3.28385 105.594 3.28906C105.625 3.28906 105.69 3.29167 105.789 3.29688V5.57812C105.648 5.5625 105.523 5.55208 105.414 5.54688C105.305 5.54167 105.216 5.53906 105.148 5.53906Z" fill="black"/>
</svg>
